<svg width="111" height="41" viewBox="0 0 111 41" fill="none" xmlns="http://www.w3.org/2000/svg">
<path d="M38.5879 30H35.2041C35.1162 30 35.0723 29.9512 35.0723 29.8535V12.7441H31.1758C31.0781 12.7441 31.0293 12.6953 31.0293 12.5977L31.0586 9.24316C31.0586 9.16504 31.0977 9.12598 31.1758 9.12598H42.5723C42.6797 9.12598 42.7334 9.16504 42.7334 9.24316V12.5977C42.7334 12.6953 42.6943 12.7441 42.6162 12.7441H38.6758L38.7051 29.8535C38.7051 29.9512 38.666 30 38.5879 30ZM47.7432 30H44.3447C44.2471 30 44.1982 29.9512 44.1982 29.8535L44.2275 9.24316C44.2275 9.16504 44.2666 9.12598 44.3447 9.12598H47.7139C47.792 9.12598 47.8311 9.16504 47.8311 9.24316L47.8604 29.8535C47.8604 29.9512 47.8213 30 47.7432 30ZM56.0195 30.293C54.9355 30.293 53.9443 30.0195 53.0459 29.4727C52.1572 28.9258 51.4492 28.1934 50.9219 27.2754C50.4043 26.3477 50.1455 25.3174 50.1455 24.1846L50.1748 14.8242C50.1748 13.7109 50.4287 12.7051 50.9365 11.8066C51.4443 10.8984 52.1426 10.1709 53.0312 9.62402C53.9297 9.06738 54.9258 8.78906 56.0195 8.78906C57.1328 8.78906 58.124 9.05762 58.9932 9.59473C59.8721 10.1318 60.5703 10.8594 61.0879 11.7773C61.6152 12.6855 61.8789 13.7012 61.8789 14.8242V16.2012C61.8789 16.2793 61.8398 16.3184 61.7617 16.3184H58.3926C58.3145 16.3184 58.2754 16.2793 58.2754 16.2012V14.8242C58.2754 14.1602 58.0605 13.5889 57.6309 13.1104C57.2012 12.6318 56.6641 12.3926 56.0195 12.3926C55.3066 12.3926 54.7598 12.6367 54.3789 13.125C53.998 13.6133 53.8076 14.1797 53.8076 14.8242V24.1846C53.8076 24.917 54.0225 25.5176 54.4521 25.9863C54.8818 26.4453 55.4043 26.6748 56.0195 26.6748C56.6641 26.6748 57.2012 26.4209 57.6309 25.9131C58.0605 25.3955 58.2754 24.8193 58.2754 24.1846V22.793C58.2754 22.7148 58.3145 22.6758 58.3926 22.6758H61.791C61.8691 22.6758 61.9082 22.7148 61.9082 22.793V24.1846C61.9082 25.3076 61.6445 26.333 61.1172 27.2607C60.5801 28.1787 59.8721 28.916 58.9932 29.4727C58.1143 30.0195 57.123 30.293 56.0195 30.293ZM67.6064 30H64.208C64.1299 30 64.0908 29.9512 64.0908 29.8535L64.1494 9.27246C64.1494 9.1748 64.1885 9.12598 64.2666 9.12598H67.6357C67.7139 9.12598 67.7529 9.1748 67.7529 9.27246V16.377L72.4551 9.24316C72.5332 9.16504 72.6064 9.12598 72.6748 9.12598H76.1172C76.2051 9.12598 76.2246 9.16504 76.1758 9.24316L70.9902 17.5195L76.8057 29.8828C76.8545 29.9609 76.8057 30 76.6592 30H72.9971C72.8994 30 72.8408 29.9609 72.8213 29.8828L68.7637 21.0645L67.7236 22.7051V29.8535C67.7236 29.9512 67.6846 30 67.6064 30ZM84.5547 30H81.1709C81.083 30 81.0391 29.9512 81.0391 29.8535V12.7441H77.1426C77.0449 12.7441 76.9961 12.6953 76.9961 12.5977L77.0254 9.24316C77.0254 9.16504 77.0645 9.12598 77.1426 9.12598H88.5391C88.6465 9.12598 88.7002 9.16504 88.7002 9.24316V12.5977C88.7002 12.6953 88.6611 12.7441 88.583 12.7441H84.6426L84.6719 29.8535C84.6719 29.9512 84.6328 30 84.5547 30ZM95.2627 30.293C94.1982 30.293 93.2168 30.0195 92.3184 29.4727C91.4297 28.9258 90.7168 28.1982 90.1797 27.29C89.6523 26.3721 89.3887 25.3662 89.3887 24.2725V22.8955C89.3887 22.7881 89.4375 22.7344 89.5352 22.7344H92.9043C92.9824 22.7344 93.0215 22.7881 93.0215 22.8955V24.2725C93.0215 24.9268 93.2412 25.4932 93.6807 25.9717C94.1201 26.4404 94.6475 26.6748 95.2627 26.6748C95.8877 26.6748 96.4199 26.4355 96.8594 25.957C97.2988 25.4688 97.5186 24.9072 97.5186 24.2725C97.5186 23.54 97.04 22.9004 96.083 22.3535C95.9268 22.2559 95.7217 22.1387 95.4678 22.002C95.2236 21.8555 94.9307 21.6895 94.5889 21.5039C94.2471 21.3184 93.915 21.1377 93.5928 20.9619C93.2705 20.7764 92.958 20.6006 92.6553 20.4346C91.5615 19.79 90.7461 18.9844 90.209 18.0176C89.6816 17.041 89.418 15.9473 89.418 14.7363C89.418 13.623 89.6914 12.6172 90.2383 11.7188C90.7852 10.8301 91.498 10.127 92.377 9.60938C93.2656 9.08203 94.2275 8.81836 95.2627 8.81836C96.3271 8.81836 97.3037 9.08203 98.1924 9.60938C99.0811 10.1465 99.7891 10.8594 100.316 11.748C100.854 12.6367 101.122 13.6328 101.122 14.7363V17.1973C101.122 17.2754 101.083 17.3145 101.005 17.3145H97.6357C97.5576 17.3145 97.5186 17.2754 97.5186 17.1973L97.4893 14.7363C97.4893 14.0332 97.2695 13.4619 96.8301 13.0225C96.3906 12.583 95.8682 12.3633 95.2627 12.3633C94.6475 12.3633 94.1201 12.5977 93.6807 13.0664C93.2412 13.5352 93.0215 14.0918 93.0215 14.7363C93.0215 15.3906 93.1582 15.9375 93.4316 16.377C93.7148 16.8164 94.2275 17.2363 94.9697 17.6367C95.0479 17.6758 95.2285 17.7734 95.5117 17.9297C95.7949 18.0859 96.1074 18.2617 96.4492 18.457C96.8008 18.6426 97.1182 18.8135 97.4014 18.9697C97.6846 19.1162 97.8555 19.2041 97.9141 19.2334C98.9102 19.79 99.6963 20.4736 100.272 21.2842C100.858 22.0947 101.151 23.0908 101.151 24.2725C101.151 25.415 100.888 26.4404 100.36 27.3486C99.8232 28.2568 99.1104 28.9746 98.2217 29.502C97.333 30.0293 96.3467 30.293 95.2627 30.293Z" fill="black"/>
<path d="M22 10C22 10.7956 21.6839 11.5587 21.1213 12.1213C20.5587 12.6839 19.7956 13 19 13C18.2044 13 17.4413 12.6839 16.8787 12.1213C16.3161 11.5587 16 10.7956 16 10L14 10C13.4696 10 12.9609 10.2107 12.5858 10.5858C12.2107 10.9609 12 11.4696 12 12L12 28C12 28.5304 12.2107 29.0391 12.5858 29.4142C12.9609 29.7893 13.4696 30 14 30L16 30C16 29.2044 16.3161 28.4413 16.8787 27.8787C17.4413 27.3161 18.2043 27 19 27C19.7956 27 20.5587 27.3161 21.1213 27.8787C21.6839 28.4413 22 29.2044 22 30L24 30C24.5304 30 25.0391 29.7893 25.4142 29.4142C25.7893 29.0391 26 28.5304 26 28L26 12C26 11.4696 25.7893 10.9609 25.4142 10.5858C25.0391 10.2107 24.5304 10 24 10L22 10Z" stroke="#183EE5" stroke-width="2" stroke-linecap="round" stroke-linejoin="round"/>
<path d="M26 21L24 21" stroke="#183EE5" stroke-width="2" stroke-linecap="round" stroke-linejoin="round"/>
<path d="M14 21L12 21" stroke="#183EE5" stroke-width="2" stroke-linecap="round" stroke-linejoin="round"/>
<path d="M20 21L18 21" stroke="#183EE5" stroke-width="2" stroke-linecap="round" stroke-linejoin="round"/>
</svg>
